<svg width="153" height="22" viewBox="0 0 153 22" fill="none" xmlns="http://www.w3.org/2000/svg">
<g clip-path="url(#clip0_1_18)">
<path d="M35.1477 18.5938C33.8777 19.8471 31.7967 19.8766 30.4808 18.6675L25.7067 14.3324C25.217 13.8753 24.4213 13.89 23.9317 14.3471C23.4267 14.8337 23.442 15.6152 23.947 16.0871L28.6905 20.4074L28.7058 20.4222C29.8381 21.4838 31.2917 21.9999 32.7607 21.9999C34.2755 21.9999 35.8057 21.4249 36.938 20.3042L40.3808 16.8833L37.7031 16.0428L35.1477 18.5938Z" fill="#F63B70"/>
<path d="M30.634 18.815L24.7429 13.4182L22.9067 15.0844L28.7366 20.4222L30.634 18.815Z" fill="url(#paint0_linear_1_18)"/>
<path d="M47.7409 6.73858C47.6797 4.93966 46.9146 3.25869 45.5681 1.99059C44.2215 0.722497 42.4466 0.0147225 40.5798 -2.28281e-05C38.6212 -0.0147681 36.8003 0.707752 35.4079 2.03483L18.0253 18.5496C16.7553 19.7587 14.7508 19.7734 13.4502 18.6086L4.42227 10.5871L2.7085 12.3713L11.7364 20.378C14.0316 22.4423 17.5663 22.3981 19.8003 20.2748L37.1828 3.76003C38.0703 2.9048 39.2486 2.43295 40.5033 2.43295C40.5186 2.43295 40.5339 2.43295 40.5492 2.43295C41.758 2.4477 42.9056 2.9048 43.7778 3.73054C44.65 4.55628 45.1549 5.64743 45.2008 6.81231C45.2008 6.85655 45.2008 6.90078 45.2008 6.94502C45.2008 8.02142 44.7571 9.0536 43.9461 9.86459L37.6113 16.1608L40.2279 17.0603L45.767 11.5603C47.0523 10.2922 47.7409 8.64073 47.7409 6.93027C47.7409 6.87129 47.7409 6.79756 47.7409 6.73858Z" fill="url(#paint1_linear_1_18)"/>
<path d="M4.42227 10.5872L2.7085 12.3713L10.7265 19.5376L13.037 18.2547L4.42227 10.5872Z" fill="url(#paint2_linear_1_18)"/>
<path d="M13.8481 7.0188C13.8328 7.0188 13.8328 7.0188 13.8481 7.0188L13.2667 7.57912L13.8481 7.0188Z" fill="url(#paint3_linear_1_18)"/>
<path d="M29.0265 2.78626C27.8482 1.31173 26.0886 0.353285 24.1759 0.205832C24.1147 0.205832 24.0688 0.191087 24.0076 0.191087C22.1561 0.0878698 20.3199 0.751409 19.004 2.00476L16.3721 4.57044L16.1885 4.7179L13.832 7.01816L13.2506 7.57849L10.8176 9.93774C9.80773 10.8519 8.4459 11.4565 7.34419 11.486C7.29828 11.486 7.25238 11.486 7.22178 11.486C5.95175 11.486 4.77353 11.0141 3.88604 10.1442C2.99855 9.2742 2.52421 8.12406 2.53951 6.9002C2.55481 5.73532 3.04446 4.62942 3.90134 3.78894C4.75823 2.94846 5.90585 2.47661 7.11467 2.44712C7.16057 2.44712 7.19117 2.44712 7.23708 2.44712C8.64482 2.44712 9.94545 3.03693 10.8482 4.08385L11.1237 4.3935C11.5521 4.88009 11.9806 5.39618 12.4396 5.88278L12.6385 6.10396C12.9905 6.48733 13.4036 6.79698 13.8626 7.01816L16.1885 4.7179L16.1579 4.74739C15.9436 4.95382 15.7753 4.98331 15.4846 4.96857C15.148 4.95382 14.796 4.79162 14.5359 4.49672L14.3064 4.27554C13.8779 3.80369 13.4495 3.30235 13.0364 2.8305L12.7762 2.5061C11.3532 0.869371 9.25688 -0.044838 7.03816 -0.000602075C5.17137 0.0436339 3.4117 0.780899 2.09576 2.06374C0.764531 3.36133 0.0300573 5.05704 -0.00054577 6.85597C-0.0311488 8.72862 0.703325 10.4981 2.08046 11.8399C3.4423 13.1817 5.27848 13.919 7.22178 13.919C7.28298 13.919 7.35949 13.919 7.4207 13.919C9.13447 13.8747 11.1084 13.0195 12.5773 11.7072L12.5926 11.6924L20.7942 3.74471C21.6052 2.97795 22.7375 2.56508 23.8698 2.62406C24.8185 2.68304 25.7366 3.08117 26.4558 3.74471L27.4657 4.79162C27.94 5.27822 28.7357 5.30771 29.256 4.8506C29.7609 4.3935 29.7915 3.62674 29.3172 3.1254L29.0265 2.78626Z" fill="url(#paint4_linear_1_18)"/>
<path d="M16.1432 4.74806C15.929 4.95449 15.7606 4.98398 15.4699 4.96924C15.1333 4.95449 14.7813 4.79229 14.5212 4.49739L14.307 4.27621C13.8786 3.80436 13.4501 3.30302 13.037 2.83117L12.7768 2.50677C11.3538 0.870042 9.25749 -0.0441666 7.03877 6.93115e-05C6.64093 0.0148146 6.22779 0.0443052 5.84525 0.118032L5.56982 2.71321C6.05947 2.53626 6.56442 2.43304 7.09998 2.43304C7.14588 2.43304 7.17648 2.43304 7.22239 2.43304C8.63013 2.43304 9.93076 3.02286 10.8335 4.06977L11.109 4.37943C11.5374 4.86602 11.9659 5.38211 12.4249 5.8687L12.6238 6.08988C12.9758 6.47326 13.3889 6.78291 13.8479 7.00409L16.1891 4.71857L16.1432 4.74806Z" fill="url(#paint5_linear_1_18)"/>
<path d="M75.6049 14.6126L72.9424 21.5576H70.1116L67.036 12.6662L63.9604 21.5576H61.1296L56.5851 9.56967H59.6913L62.6139 18.2694L65.6589 9.56967H68.4591L71.5041 18.2989L73.0189 14.0228C73.5851 12.2386 73.9217 10.8673 73.6463 9.58442H76.4465C76.7831 10.9705 76.37 12.5482 75.6049 14.6126Z" fill="#00004F"/>
<path d="M91.5948 16.559H81.2969C81.6947 18.2989 83.179 19.449 85.1223 19.449C86.5606 19.449 87.8 18.815 88.4427 17.9008H91.4724C90.4778 20.26 88.0296 21.823 85.0764 21.823C81.2204 21.823 78.359 19.1246 78.359 15.5415C78.359 11.9732 81.2204 9.26004 84.9999 9.26004C88.8099 9.26004 91.656 11.9584 91.656 15.5563C91.6713 15.8364 91.6407 16.2788 91.5948 16.559ZM81.3122 14.4062H88.7028C88.2744 12.7547 86.8054 11.6488 84.9999 11.6488C83.1943 11.6488 81.7866 12.7547 81.3122 14.4062Z" fill="#00004F"/>
<path d="M111.563 14.6125L108.901 21.5575H106.07L102.995 12.6661L99.9189 21.5575H97.0881L92.5436 9.56961H95.6498L98.5724 18.2693L101.617 9.56961H104.418L107.463 18.2988L108.977 14.0227C109.544 12.2385 109.88 10.8672 109.605 9.58436H112.405C112.726 10.9704 112.313 12.5482 111.563 14.6125Z" fill="#00004F"/>
<path d="M128.961 19.0067V21.5429H128.181C126.421 21.5429 125.319 20.8351 124.983 19.5228C123.988 20.9383 122.397 21.823 120.5 21.823C116.98 21.823 114.379 19.1246 114.379 15.5415C114.379 11.9732 116.995 9.26004 120.5 9.26004C122.336 9.26004 123.866 10.0858 124.876 11.3981V9.55495H127.615V17.9008C127.615 18.5791 128.028 19.0067 128.762 19.0067H128.961ZM124.86 15.5563C124.86 13.433 123.223 11.811 121.035 11.811C118.816 11.811 117.179 13.433 117.179 15.5563C117.179 17.6796 118.816 19.3016 121.035 19.3016C123.223 19.2868 124.86 17.6649 124.86 15.5563Z" fill="#00004F"/>
<path d="M138.387 9.36325V12.0616C135.755 12.0616 134.21 13.4919 134.21 15.7037V21.5429H131.471V9.55494H134.21V11.5603C135.189 10.189 136.627 9.36325 138.387 9.36325Z" fill="#00004F"/>
<path d="M152.923 16.559H142.626C143.023 18.2989 144.508 19.449 146.451 19.449C147.889 19.449 149.129 18.815 149.771 17.9008H152.801C151.806 20.26 149.358 21.823 146.405 21.823C142.549 21.823 139.688 19.1246 139.688 15.5415C139.688 11.9732 142.549 9.26004 146.329 9.26004C150.139 9.26004 152.985 11.9584 152.985 15.5563C153 15.8364 152.969 16.2788 152.923 16.559ZM142.656 14.4062H150.047C149.603 12.7547 148.149 11.6488 146.329 11.6488C144.523 11.6488 143.115 12.7547 142.656 14.4062Z" fill="#00004F"/>
</g>
<defs>
<linearGradient id="paint0_linear_1_18" x1="29.2921" y1="19.3235" x2="24.7236" y2="14.7037" gradientUnits="userSpaceOnUse">
<stop offset="0.0026455" stop-color="#7600FF" stop-opacity="0"/>
<stop offset="0.478" stop-color="#6C00DB" stop-opacity="0.4773"/>
<stop offset="0.9986" stop-color="#5F00B0"/>
</linearGradient>
<linearGradient id="paint1_linear_1_18" x1="25.3118" y1="10.3563" x2="39.5967" y2="13.5275" gradientUnits="userSpaceOnUse">
<stop stop-color="#B419FB"/>
<stop offset="0.2829" stop-color="#C522D7"/>
<stop offset="0.9082" stop-color="#F0387E"/>
<stop offset="0.9986" stop-color="#F63B70"/>
</linearGradient>
<linearGradient id="paint2_linear_1_18" x1="8.88895" y1="19.2239" x2="7.68526" y2="14.2275" gradientUnits="userSpaceOnUse">
<stop offset="0.0026455" stop-color="#7600FF" stop-opacity="0"/>
<stop offset="0.478" stop-color="#6C00DB" stop-opacity="0.4773"/>
<stop offset="0.9986" stop-color="#5F00B0"/>
</linearGradient>
<linearGradient id="paint3_linear_1_18" x1="13.262" y1="7.29573" x2="13.8413" y2="7.29573" gradientUnits="userSpaceOnUse">
<stop stop-color="#3CDEDB"/>
<stop offset="1" stop-color="#BFF1C5"/>
</linearGradient>
<linearGradient id="paint4_linear_1_18" x1="-0.00054577" y1="6.95787" x2="29.6527" y2="6.95787" gradientUnits="userSpaceOnUse">
<stop offset="0.000702712" stop-color="#F43581"/>
<stop offset="1" stop-color="#FF6E00"/>
</linearGradient>
<linearGradient id="paint5_linear_1_18" x1="8.47809" y1="-0.465175" x2="13.3036" y2="8.57473" gradientUnits="userSpaceOnUse">
<stop offset="0.0026455" stop-color="#BD00FF" stop-opacity="0"/>
<stop offset="0.4678" stop-color="#AD00DB" stop-opacity="0.4664"/>
<stop offset="1" stop-color="#9800AE"/>
</linearGradient>
<clipPath id="clip0_1_18">
<rect width="153" height="22" fill="white"/>
</clipPath>
</defs>
</svg>
